<?xml version="1.0" encoding="UTF-8" standalone="no"?>
<!DOCTYPE svg PUBLIC "-//W3C//DTD SVG 1.1//EN"
 "http://www.w3.org/Graphics/SVG/1.1/DTD/svg11.dtd">
<!-- Generated by graphviz version 2.38.0 (20140413.2041)
 -->
<!-- Title: G Pages: 1 -->
<svg width="583pt" height="297pt"
 viewBox="0.00 0.00 583.06 297.45" xmlns="http://www.w3.org/2000/svg" xmlns:xlink="http://www.w3.org/1999/xlink">
<g id="graph0" class="graph" transform="scale(1 1) rotate(0) translate(4 293.447)">
<title>G</title>
<polygon fill="white" stroke="none" points="-4,4 -4,-293.447 579.06,-293.447 579.06,4 -4,4"/>
<g id="clust1" class="cluster"><title>cluster_0</title>
<polygon fill="none" stroke="black" points="156.689,-206.447 156.689,-281.447 401.072,-281.447 401.072,-206.447 156.689,-206.447"/>
<text text-anchor="middle" x="278.88" y="-266.247" font-family="Times,serif" font-size="14.00">Public</text>
</g>
<g id="clust2" class="cluster"><title>cluster_1</title>
<polygon fill="none" stroke="black" points="274.581,-76.4471 274.581,-151.447 567.06,-151.447 567.06,-76.4471 274.581,-76.4471"/>
<text text-anchor="middle" x="420.821" y="-136.247" font-family="Times,serif" font-size="14.00">Private</text>
</g>
<!-- Portal -->
<g id="node1" class="node"><title>Portal</title>
<ellipse fill="none" stroke="black" cx="196.536" cy="-232.447" rx="31.6951" ry="18"/>
<text text-anchor="middle" x="196.536" y="-228.747" font-family="Times,serif" font-size="14.00">Portal</text>
</g>
<!-- Routing Server -->
<g id="node2" class="node"><title>Routing Server</title>
<ellipse fill="none" stroke="black" cx="328.727" cy="-232.447" rx="64.189" ry="18"/>
<text text-anchor="middle" x="328.727" y="-228.747" font-family="Times,serif" font-size="14.00">Routing Server</text>
</g>
<!-- Portal&#45;&gt;Routing Server -->
<!-- Scheduler -->
<g id="node3" class="node"><title>Scheduler</title>
<ellipse fill="none" stroke="black" cx="328.727" cy="-102.447" rx="46.2923" ry="18"/>
<text text-anchor="middle" x="328.727" y="-98.7471" font-family="Times,serif" font-size="14.00">Scheduler</text>
</g>
<!-- Portal&#45;&gt;Scheduler -->
<!-- Compute Node -->
<g id="node4" class="node"><title>Compute Node</title>
<ellipse fill="none" stroke="black" cx="494.066" cy="-102.447" rx="64.9885" ry="18"/>
<text text-anchor="middle" x="494.066" y="-98.7471" font-family="Times,serif" font-size="14.00">Compute Node</text>
</g>
<!-- Portal&#45;&gt;Compute Node -->
<!-- Image Server -->
<g id="node6" class="node"><title>Image Server</title>
<ellipse fill="none" stroke="black" cx="328.727" cy="-48.4471" rx="58.4896" ry="18"/>
<text text-anchor="middle" x="328.727" y="-44.7471" font-family="Times,serif" font-size="14.00">Image Server</text>
</g>
<!-- Portal&#45;&gt;Image Server -->
<g id="edge7" class="edge"><title>Portal&#45;&gt;Image Server</title>
<path fill="none" stroke="black" d="M200.281,-214.471C206.181,-181.809 223.047,-112.417 264.383,-72.4471 267.426,-69.5042 270.867,-66.9143 274.532,-64.6364"/>
<polygon fill="black" stroke="black" points="276.257,-67.6829 283.411,-59.8683 272.945,-61.5158 276.257,-67.6829"/>
</g>
<!-- Routing Server&#45;&gt;Scheduler -->
<!-- Routing Server&#45;&gt;Compute Node -->
<!-- Routing Server&#45;&gt;Image Server -->
<!-- Scheduler&#45;&gt;Portal -->
<g id="edge8" class="edge"><title>Scheduler&#45;&gt;Portal</title>
<path fill="none" stroke="black" d="M286.933,-110.412C278.981,-114.508 271.052,-119.598 264.383,-125.447 239.071,-147.647 218.827,-181.457 207.5,-205.34"/>
<polygon fill="black" stroke="black" points="204.25,-204.034 203.337,-214.59 210.633,-206.908 204.25,-204.034"/>
</g>
<!-- Scheduler&#45;&gt;Compute Node -->
<g id="edge9" class="edge"><title>Scheduler&#45;&gt;Compute Node</title>
<path fill="none" stroke="black" d="M375.226,-102.447C388.725,-102.447 403.875,-102.447 418.702,-102.447"/>
<polygon fill="black" stroke="black" points="418.891,-105.947 428.891,-102.447 418.891,-98.9472 418.891,-105.947"/>
</g>
<!-- Compute Node&#45;&gt;Portal -->
<g id="edge3" class="edge"><title>Compute Node&#45;&gt;Portal</title>
<path fill="none" stroke="black" d="M448.85,-115.448C384.721,-134.381 272.607,-167.801 264.383,-172.447 247.405,-182.039 231.063,-196.576 218.788,-208.939"/>
<polygon fill="black" stroke="black" points="216.12,-206.663 211.7,-216.292 221.16,-211.521 216.12,-206.663"/>
</g>
<!-- Compute Node&#45;&gt;Routing Server -->
<g id="edge4" class="edge"><title>Compute Node&#45;&gt;Routing Server</title>
<path fill="none" stroke="black" d="M474.827,-119.747C457.681,-139.36 430.334,-170.587 401.072,-191.447 389.994,-199.344 376.657,-205.962 364.527,-211.632"/>
<polygon fill="black" stroke="black" points="362.73,-208.607 355.123,-215.982 365.669,-214.96 362.73,-208.607"/>
</g>
<!-- Compute Node&#45;&gt;Image Server -->
<g id="edge5" class="edge"><title>Compute Node&#45;&gt;Image Server</title>
<path fill="none" stroke="black" d="M461.934,-86.7188C441.074,-78.563 412.965,-68.9163 388.03,-61.2239"/>
<polygon fill="black" stroke="black" points="388.877,-57.8236 378.292,-58.2719 386.846,-64.5225 388.877,-57.8236"/>
</g>
<!-- Storage Server -->
<g id="node7" class="node"><title>Storage Server</title>
<ellipse fill="none" stroke="black" cx="494.066" cy="-48.4471" rx="63.0888" ry="18"/>
<text text-anchor="middle" x="494.066" y="-44.7471" font-family="Times,serif" font-size="14.00">Storage Server</text>
</g>
<!-- Compute Node&#45;&gt;Storage Server -->
<g id="edge6" class="edge"><title>Compute Node&#45;&gt;Storage Server</title>
<path fill="none" stroke="black" d="M494.066,-84.2373C494.066,-81.7553 494.066,-79.2734 494.066,-76.7914"/>
<polygon fill="black" stroke="black" points="497.566,-76.5877 494.066,-66.5878 490.566,-76.5878 497.566,-76.5877"/>
</g>
<!-- Client Browser -->
<g id="node5" class="node"><title>Client Browser</title>
<ellipse fill="none" stroke="black" cx="64.3443" cy="-255.447" rx="64.189" ry="18"/>
<text text-anchor="middle" x="64.3443" y="-251.747" font-family="Times,serif" font-size="14.00">Client Browser</text>
</g>
<!-- Client Browser&#45;&gt;Portal -->
<g id="edge1" class="edge"><title>Client Browser&#45;&gt;Portal</title>
<path fill="none" stroke="black" d="M119.05,-245.959C131.277,-243.799 144.057,-241.541 155.593,-239.504"/>
<polygon fill="black" stroke="black" points="156.546,-242.889 165.785,-237.703 155.328,-235.996 156.546,-242.889"/>
</g>
<!-- Client Browser&#45;&gt;Routing Server -->
<g id="edge2" class="edge"><title>Client Browser&#45;&gt;Routing Server</title>
<path fill="none" stroke="black" d="M125.213,-261.392C156.144,-263.334 194.424,-263.98 228.383,-259.447 244.369,-257.314 261.428,-253.329 276.818,-249.065"/>
<polygon fill="black" stroke="black" points="278.016,-252.362 286.662,-246.238 276.084,-245.634 278.016,-252.362"/>
</g>
<!-- Image Server&#45;&gt;Scheduler -->
<!-- Image Server&#45;&gt;Compute Node -->
<!-- Image Server&#45;&gt;Storage Server -->
<!-- Storage Server&#45;&gt;Portal -->
<g id="edge10" class="edge"><title>Storage Server&#45;&gt;Portal</title>
<path fill="none" stroke="black" d="M462.672,-32.7497C415.405,-10.7732 323.573,21.8901 264.383,-21.4471 206.28,-63.9885 197.422,-157.317 196.847,-204.279"/>
<polygon fill="black" stroke="black" points="193.347,-204.363 196.844,-214.364 200.347,-204.365 193.347,-204.363"/>
</g>
<!-- Storage Server&#45;&gt;Scheduler -->
<!-- Storage Server&#45;&gt;Compute Node -->
</g>
</svg>
