<?xml version="1.0" encoding="UTF-8" standalone="no"?>
<!-- Created with Inkscape (http://www.inkscape.org/) -->

<svg
   xmlns:dc="http://purl.org/dc/elements/1.1/"
   xmlns:cc="http://creativecommons.org/ns#"
   xmlns:rdf="http://www.w3.org/1999/02/22-rdf-syntax-ns#"
   xmlns:svg="http://www.w3.org/2000/svg"
   xmlns="http://www.w3.org/2000/svg"
   xmlns:sodipodi="http://sodipodi.sourceforge.net/DTD/sodipodi-0.dtd"
   xmlns:inkscape="http://www.inkscape.org/namespaces/inkscape"
   width="133.28516"
   height="93.626953"
   id="svg2"
   version="1.1"
   inkscape:version="0.91 r13725"
   sodipodi:docname="DIT4C_logo.svg"
   inkscape:export-filename="/home/uqtdettr/Pictures/DIT4C_logo.png"
   inkscape:export-xdpi="336.32288"
   inkscape:export-ydpi="336.32288">
  <defs
     id="defs4" />
  <sodipodi:namedview
     id="base"
     pagecolor="#ffffff"
     bordercolor="#666666"
     borderopacity="1.0"
     inkscape:pageopacity="0.0"
     inkscape:pageshadow="2"
     inkscape:zoom="3.959798"
     inkscape:cx="71.441753"
     inkscape:cy="51.930922"
     inkscape:document-units="px"
     inkscape:current-layer="layer1"
     showgrid="false"
     inkscape:window-width="1388"
     inkscape:window-height="900"
     inkscape:window-x="234"
     inkscape:window-y="851"
     inkscape:window-maximized="0"
     fit-margin-top="12"
     fit-margin-left="2"
     fit-margin-right="2"
     fit-margin-bottom="12"
     showguides="true">
    <inkscape:grid
       type="xygrid"
       id="grid3479"
       originx="8.6e-06"
       originy="10.000543" />
  </sodipodi:namedview>
  <metadata
     id="metadata7">
    <rdf:RDF>
      <cc:Work
         rdf:about="">
        <dc:format>image/svg+xml</dc:format>
        <dc:type
           rdf:resource="http://purl.org/dc/dcmitype/StillImage" />
        <dc:title></dc:title>
      </cc:Work>
    </rdf:RDF>
  </metadata>
  <g
     inkscape:label="Layer 1"
     inkscape:groupmode="layer"
     id="layer1"
     transform="translate(-0.1428524,8.7367116)">
    <g
       id="Captions"
       transform="matrix(1.2928571,0,0,1.2421092,2.1428614,-23.99483)" />
    <path
       d="M 60.574219,2 C 45.313334,2 32.939453,13.888745 32.939453,28.546875 c 0,0.627265 0.05241,1.243289 0.09766,1.859375 -2.804211,-1.263225 -5.923288,-1.988281 -9.22266,-1.988281 C 11.766318,28.416769 2,38.451417 2,50.025391 2,61.599364 11.766318,71.626953 23.814453,71.626953 l 92.423827,0 c 8.30919,0 15.04688,-7.115862 15.04688,-15.097656 0,-7.984278 -6.73769,-15.101563 -15.04688,-15.101563 -0.0272,0 -0.0549,0.0059 -0.0859,0.0059 0.0181,-0.274506 0.0859,-0.537643 0.0859,-0.81836 0,-8.840091 -7.45823,-16.001953 -16.658202,-16.001953 -4.420279,0 -8.415155,1.680514 -11.396484,4.38086 0.0039,-0.150296 0.02539,-0.296971 0.02539,-0.447266 C 88.208984,13.888745 75.83769,2 60.574219,2 Z m 41.339841,33.947266 c 2.66665,2.6e-5 4.99998,0.705832 7,2.11914 l -0.43945,1.88086 -0.32031,0.03906 c -1.86669,-1.49331 -3.97367,-2.24021 -6.32032,-2.240234 -2.853346,2.4e-5 -5.038597,0.960882 -6.558589,2.880859 -1.493338,1.920019 -2.240239,4.693663 -2.240235,8.320313 -4e-6,3.626676 0.732548,6.398365 2.199219,8.318359 1.466659,1.893338 3.573633,2.839844 6.320315,2.839844 2.53332,0 4.86665,-0.839534 7,-2.519531 l 0.32031,0.121093 -0.16016,1.958985 c -2.29335,1.52 -4.72127,2.28125 -7.28125,2.28125 -3.360006,0 -5.95883,-1.106975 -7.798824,-3.320313 -1.813336,-2.239995 -2.720705,-5.427205 -2.720704,-9.560547 -10e-7,-4.18665 0.946508,-7.413 2.839844,-9.679687 1.919993,-2.293309 4.640146,-3.439427 8.160154,-3.439453 z m -74.062498,0.03906 c 3.626651,2.6e-5 6.400294,1.039165 8.320313,3.119141 1.946643,2.08002 2.919898,5.067621 2.919922,8.960937 -2.4e-5,4.453342 -1.026768,7.879303 -3.080078,10.279297 -2.053352,2.373338 -4.99986,3.560547 -8.839844,3.560547 -2.00001,0 -4.666674,-0.06592 -8,-0.199219 l 0.121094,-7.759765 -0.121094,-17.800782 8.679687,-0.160156 z m 17.023438,0.160156 2.121094,0 -0.121094,17.679688 0.08008,7.880859 -2.080078,0 0.121094,-7.759765 L 44.875,36.146484 Z m 7.394531,0 16.960938,0 0.199219,0.240235 -0.199219,1.599609 -4.28125,-0.11914 -3.119141,0 -0.121094,15.958984 0.08008,7.880859 -2.080078,0 0.121094,-7.759765 -0.121094,-16.080078 -3.11914,0 -4.359375,0.11914 -0.160157,-0.240234 0.199219,-1.59961 z m -24.537109,1.59961 c -1.546678,2.4e-5 -3.692795,0.06786 -6.439453,0.201172 l -0.121094,15.878906 0.08008,6.080078 c 2.453325,0.16 4.519208,0.240234 6.199219,0.240234 3.066651,0 5.41433,-1.000002 7.041016,-3 1.653311,-1.999994 2.480446,-4.90736 2.480468,-8.720703 -2.2e-5,-3.519983 -0.788016,-6.172298 -2.361328,-7.958984 -1.573351,-1.81331 -3.865588,-2.720679 -6.878906,-2.720703 z m 54.033203,4.160156 1.919922,0 -0.03906,14.599609 3.958985,0 0.201172,0.240235 -0.201172,1.519531 -3.279297,-0.03906 -0.679688,0 0.08008,7.039063 -0.160156,0.201172 -1.560547,0.160156 -0.160156,-0.201172 0.08008,-7.199219 -8.039062,0 -2.160157,0.03906 -0.199218,-0.238281 0,-1.400391 10.238281,-14.720703 z m -0.08008,2.800781 -8.199219,11.798828 8.439453,0 0,-11.798828 -0.240234,0 z"
       transform="translate(0.1428524,1.2632884)"
       id="path3039"
       inkscape:connector-curvature="0" />
    <text
       xml:space="preserve"
       style="font-style:normal;font-variant:normal;font-weight:normal;font-stretch:normal;font-size:40px;line-height:125%;font-family:Sans;-inkscape-font-specification:Sans;text-align:start;letter-spacing:0px;word-spacing:0px;writing-mode:lr-tb;text-anchor:start;fill:#000000;fill-opacity:1;stroke:none;stroke-width:1px;stroke-linecap:butt;stroke-linejoin:miter;stroke-opacity:1"
       x="24.891598"
       y="103.17397"
       id="text3372"
       sodipodi:linespacing="125%"><tspan
         sodipodi:role="line"
         id="tspan3374"
         x="24.891598"
         y="103.17397"
         style="font-style:normal;font-variant:normal;font-weight:normal;font-stretch:normal;font-size:15px;font-family:Raleway;-inkscape-font-specification:Raleway" /></text>
    <text
       xml:space="preserve"
       style="font-style:normal;font-variant:normal;font-weight:normal;font-stretch:normal;font-size:15px;line-height:125%;font-family:Sans;-inkscape-font-specification:Sans;text-align:start;letter-spacing:0px;word-spacing:0px;writing-mode:lr-tb;text-anchor:start;fill:#000000;fill-opacity:1;stroke:none;stroke-width:1px;stroke-linecap:butt;stroke-linejoin:miter;stroke-opacity:1"
       x="34.633583"
       y="92.809242"
       id="text3345-6"
       sodipodi:linespacing="125%"><tspan
         sodipodi:role="line"
         id="tspan3347-9"
         x="34.633583"
         y="92.809242"
         style="font-style:normal;font-variant:normal;font-weight:normal;font-stretch:normal;font-size:15px;font-family:Raleway;-inkscape-font-specification:Raleway" /><tspan
         sodipodi:role="line"
         x="34.633583"
         y="111.55924"
         style="font-style:normal;font-variant:normal;font-weight:normal;font-stretch:normal;font-size:15px;font-family:Raleway;-inkscape-font-specification:Raleway"
         id="tspan3349-6" /></text>
    <text
       xml:space="preserve"
       style="font-style:normal;font-variant:normal;font-weight:normal;font-stretch:normal;font-size:40px;line-height:125%;font-family:Sans;-inkscape-font-specification:Sans;text-align:start;letter-spacing:0px;word-spacing:0px;writing-mode:lr-tb;text-anchor:start;fill:#000000;fill-opacity:1;stroke:none;stroke-width:1px;stroke-linecap:butt;stroke-linejoin:miter;stroke-opacity:1"
       x="42.242416"
       y="83.332802"
       id="text3372-5"
       sodipodi:linespacing="125%"><tspan
         sodipodi:role="line"
         id="tspan3374-6"
         x="42.242416"
         y="83.332802"
         style="font-style:normal;font-variant:normal;font-weight:normal;font-stretch:normal;font-size:15px;font-family:Raleway;-inkscape-font-specification:Raleway" /></text>
    <text
       xml:space="preserve"
       style="font-style:normal;font-variant:normal;font-weight:normal;font-stretch:normal;font-size:40px;line-height:125%;font-family:Sans;-inkscape-font-specification:Sans;text-align:start;letter-spacing:0px;word-spacing:0px;writing-mode:lr-tb;text-anchor:start;fill:#000000;fill-opacity:1;stroke:none;stroke-width:1px;stroke-linecap:butt;stroke-linejoin:miter;stroke-opacity:1"
       x="42.494957"
       y="103.53585"
       id="text3372-2"
       sodipodi:linespacing="125%"><tspan
         sodipodi:role="line"
         id="tspan3374-8"
         x="42.494957"
         y="103.53585"
         style="font-style:normal;font-variant:normal;font-weight:normal;font-stretch:normal;font-size:15px;font-family:Raleway;-inkscape-font-specification:Raleway" /></text>
    <text
       xml:space="preserve"
       style="font-style:normal;font-variant:normal;font-weight:normal;font-stretch:normal;font-size:15px;line-height:125%;font-family:Sans;-inkscape-font-specification:Sans;text-align:start;letter-spacing:0px;word-spacing:0px;writing-mode:lr-tb;text-anchor:start;fill:#000000;fill-opacity:1;stroke:none;stroke-width:1px;stroke-linecap:butt;stroke-linejoin:miter;stroke-opacity:1"
       x="54.584095"
       y="82.202652"
       id="text3345-6-4"
       sodipodi:linespacing="125%"><tspan
         sodipodi:role="line"
         id="tspan3347-9-3"
         x="54.584095"
         y="82.202652"
         style="font-style:normal;font-variant:normal;font-weight:normal;font-stretch:normal;font-size:15px;font-family:Raleway;-inkscape-font-specification:Raleway" /><tspan
         sodipodi:role="line"
         x="54.584095"
         y="100.95265"
         style="font-style:normal;font-variant:normal;font-weight:normal;font-stretch:normal;font-size:15px;font-family:Raleway;-inkscape-font-specification:Raleway"
         id="tspan3349-6-3" /></text>
    <text
       xml:space="preserve"
       style="font-style:normal;font-variant:normal;font-weight:normal;font-stretch:normal;font-size:40px;line-height:125%;font-family:Sans;-inkscape-font-specification:Sans;text-align:start;letter-spacing:0px;word-spacing:0px;writing-mode:lr-tb;text-anchor:start;fill:#000000;fill-opacity:1;stroke:none;stroke-width:1px;stroke-linecap:butt;stroke-linejoin:miter;stroke-opacity:1"
       x="24.133986"
       y="95.850357"
       id="text3459"
       sodipodi:linespacing="125%"><tspan
         sodipodi:role="line"
         id="tspan3461"
         x="24.133986"
         y="95.850357" /></text>
  </g>
</svg>
